<svg width="69" height="58" viewBox="0 0 69 58" fill="none" xmlns="http://www.w3.org/2000/svg">
<mask id="mask0" mask-type="alpha" maskUnits="userSpaceOnUse" x="0" y="0" width="69" height="58">
<rect width="69" height="58" fill="white"/>
<rect width="69" height="58" fill="url(#paint0_linear)"/>
</mask>
<g mask="url(#mask0)">
<path d="M23.6523 32.8623C21.736 40.983 21.4911 42.2605 21.2445 43.6614H21.2034C20.8763 41.7502 20.729 40.9676 19.0028 32.8623H15.732C14.1667 40.6148 13.9424 42.1167 13.6752 43.6614H13.6359C13.3687 41.9745 13.1803 40.9453 11.288 32.8623H8L12.1751 47.6309H15.0538C16.6396 40.0206 16.8828 38.9503 17.3383 36.1109H17.3777C17.8692 38.9468 18.1397 40.3888 19.6622 47.6309H22.6231L26.781 32.8623H23.6523Z" fill="white"/>
<path d="M23.6523 32.8623C21.736 40.983 21.4911 42.2605 21.2445 43.6614H21.2034C20.8763 41.7502 20.729 40.9676 19.0028 32.8623H15.732C14.1667 40.6148 13.9424 42.1167 13.6752 43.6614H13.6359C13.3687 41.9745 13.1803 40.9453 11.288 32.8623H8L12.1751 47.6309H15.0538C16.6396 40.0206 16.8828 38.9503 17.3383 36.1109H17.3777C17.8692 38.9468 18.1397 40.3888 19.6622 47.6309H22.6231L26.781 32.8623H23.6523Z" fill="url(#paint1_linear)"/>
<path d="M20.8257 55.0224C20.8257 53.7089 20.5123 53.4949 19.9334 53.2431C20.6287 53.0051 21.0209 52.3423 21.0209 51.5666C21.0209 50.9638 20.6801 49.5801 18.81 49.5801H15.2549V56.6065H16.6968V53.8579H18.2124C19.2998 53.8579 19.3598 54.2278 19.3598 55.1885C19.3598 55.9146 19.4163 56.276 19.5139 56.6065H21.139V56.4232C20.8274 56.3085 20.8274 56.0551 20.8257 55.0224ZM18.4162 52.6797H16.6968V50.796H18.5258C19.3854 50.796 19.5533 51.344 19.5533 51.7156C19.5533 52.4126 19.1817 52.6797 18.4162 52.6797Z" fill="white"/>
<path d="M20.8257 55.0224C20.8257 53.7089 20.5123 53.4949 19.9334 53.2431C20.6287 53.0051 21.0209 52.3423 21.0209 51.5666C21.0209 50.9638 20.6801 49.5801 18.81 49.5801H15.2549V56.6065H16.6968V53.8579H18.2124C19.2998 53.8579 19.3598 54.2278 19.3598 55.1885C19.3598 55.9146 19.4163 56.276 19.5139 56.6065H21.139V56.4232C20.8274 56.3085 20.8274 56.0551 20.8257 55.0224ZM18.4162 52.6797H16.6968V50.796H18.5258C19.3854 50.796 19.5533 51.344 19.5533 51.7156C19.5533 52.4126 19.1817 52.6797 18.4162 52.6797Z" fill="url(#paint2_linear)"/>
<path d="M8.66406 49.583L8.66578 50.8263H10.7893V56.6094H12.2535V50.8263H14.3787V49.583H8.66406Z" fill="white"/>
<path d="M8.66406 49.583L8.66578 50.8263H10.7893V56.6094H12.2535V50.8263H14.3787V49.583H8.66406Z" fill="url(#paint3_linear)"/>
<path d="M45.459 11.6912C45.423 11.0713 45.4007 10.7168 45.4007 10.7168C45.4007 10.7168 45.3476 11.0679 45.2466 11.6826C45.2038 11.9858 45.1404 12.354 45.0719 12.7769C45.0223 13.1982 44.8185 13.6486 44.6798 14.1452C44.5359 14.6419 44.3612 15.1693 44.0735 15.6831C43.8081 16.2037 43.5718 16.7619 43.1693 17.2534C42.9912 17.5052 42.808 17.762 42.6265 18.0223C42.433 18.2724 42.1829 18.4899 41.9637 18.7262C41.5407 19.216 41.0219 19.6167 40.5064 20.0106C40.02 20.425 39.407 20.711 38.8932 21.0535C38.299 21.3121 37.7784 21.6306 37.1927 21.8224C36.6344 22.045 36.083 22.2351 35.5401 22.3738C35.0161 22.5451 34.4904 22.6273 34.0263 22.7403C33.73 22.7934 33.456 22.8379 33.194 22.8773C33.2197 22.7968 33.2522 22.7214 33.2796 22.641C33.5279 21.8909 33.7146 21.1066 33.8379 20.2828C33.8893 19.865 33.9321 19.442 33.9612 19.0105C33.9852 18.5738 33.9766 18.12 33.9321 17.6473C33.492 17.8305 33.0895 18.0378 32.7111 18.2587C32.3446 18.4864 31.9918 18.7228 31.6476 18.9676C30.9763 19.4626 30.3718 19.9951 29.8255 20.5637C28.7209 21.6957 27.8202 22.9509 27.0701 24.2952L26.9742 24.4614C26.5118 25.2971 26.6026 26.3674 27.2773 27.1174C28.1678 28.1056 29.1439 29.0252 30.2776 29.8112C30.841 30.2068 31.4438 30.5716 32.0997 30.8952C32.7556 31.2155 33.432 31.5203 34.2369 31.7155C34.1958 30.8901 34.028 30.1657 33.843 29.4601C33.6615 28.7734 33.4252 28.1312 33.1529 27.5147C33.754 27.3195 34.4801 27.0489 35.3004 26.7013C35.8295 26.4479 36.4101 26.2115 36.9923 25.8742C37.5849 25.5693 38.1842 25.2012 38.7888 24.7936C39.407 24.422 39.9772 23.8996 40.5817 23.4458C41.1263 22.8995 41.7257 22.4166 42.2069 21.8001C42.7053 21.2059 43.1882 20.6134 43.5581 19.9455C43.7465 19.6201 43.9622 19.317 44.1198 18.9831C44.2619 18.6457 44.4058 18.3135 44.5428 17.9847C44.8579 17.351 44.9914 16.6746 45.149 16.0581C45.3357 15.4484 45.3973 14.8508 45.4333 14.3028C45.4692 13.7548 45.5634 13.2667 45.5275 12.8249C45.4966 12.3882 45.4812 12.0046 45.459 11.6912Z" fill="white"/>
<path d="M45.459 11.6912C45.423 11.0713 45.4007 10.7168 45.4007 10.7168C45.4007 10.7168 45.3476 11.0679 45.2466 11.6826C45.2038 11.9858 45.1404 12.354 45.0719 12.7769C45.0223 13.1982 44.8185 13.6486 44.6798 14.1452C44.5359 14.6419 44.3612 15.1693 44.0735 15.6831C43.8081 16.2037 43.5718 16.7619 43.1693 17.2534C42.9912 17.5052 42.808 17.762 42.6265 18.0223C42.433 18.2724 42.1829 18.4899 41.9637 18.7262C41.5407 19.216 41.0219 19.6167 40.5064 20.0106C40.02 20.425 39.407 20.711 38.8932 21.0535C38.299 21.3121 37.7784 21.6306 37.1927 21.8224C36.6344 22.045 36.083 22.2351 35.5401 22.3738C35.0161 22.5451 34.4904 22.6273 34.0263 22.7403C33.73 22.7934 33.456 22.8379 33.194 22.8773C33.2197 22.7968 33.2522 22.7214 33.2796 22.641C33.5279 21.8909 33.7146 21.1066 33.8379 20.2828C33.8893 19.865 33.9321 19.442 33.9612 19.0105C33.9852 18.5738 33.9766 18.12 33.9321 17.6473C33.492 17.8305 33.0895 18.0378 32.7111 18.2587C32.3446 18.4864 31.9918 18.7228 31.6476 18.9676C30.9763 19.4626 30.3718 19.9951 29.8255 20.5637C28.7209 21.6957 27.8202 22.9509 27.0701 24.2952L26.9742 24.4614C26.5118 25.2971 26.6026 26.3674 27.2773 27.1174C28.1678 28.1056 29.1439 29.0252 30.2776 29.8112C30.841 30.2068 31.4438 30.5716 32.0997 30.8952C32.7556 31.2155 33.432 31.5203 34.2369 31.7155C34.1958 30.8901 34.028 30.1657 33.843 29.4601C33.6615 28.7734 33.4252 28.1312 33.1529 27.5147C33.754 27.3195 34.4801 27.0489 35.3004 26.7013C35.8295 26.4479 36.4101 26.2115 36.9923 25.8742C37.5849 25.5693 38.1842 25.2012 38.7888 24.7936C39.407 24.422 39.9772 23.8996 40.5817 23.4458C41.1263 22.8995 41.7257 22.4166 42.2069 21.8001C42.7053 21.2059 43.1882 20.6134 43.5581 19.9455C43.7465 19.6201 43.9622 19.317 44.1198 18.9831C44.2619 18.6457 44.4058 18.3135 44.5428 17.9847C44.8579 17.351 44.9914 16.6746 45.149 16.0581C45.3357 15.4484 45.3973 14.8508 45.4333 14.3028C45.4692 13.7548 45.5634 13.2667 45.5275 12.8249C45.4966 12.3882 45.4812 12.0046 45.459 11.6912Z" fill="url(#paint4_linear)"/>
<path d="M41.8091 6.80529C40.9477 5.79148 39.999 4.84276 38.8893 4.02247C38.3379 3.60804 37.7471 3.22615 37.1015 2.88365C36.4524 2.54629 35.7828 2.22263 34.9865 2C35.0019 2.82714 35.1475 3.55495 35.3136 4.26735C35.4763 4.95921 35.6938 5.60825 35.9472 6.2316C35.3393 6.4097 34.6029 6.65972 33.7758 6.98167C33.2381 7.21971 32.6507 7.4372 32.0599 7.75744C31.4588 8.04514 30.8474 8.39449 30.2309 8.78494C29.6024 9.13943 29.0167 9.6429 28.4019 10.0779C27.8402 10.6088 27.2255 11.0711 26.7271 11.6756C26.2134 12.2545 25.7099 12.8316 25.3211 13.4892C25.1225 13.8094 24.8964 14.1057 24.7303 14.4328C24.5745 14.765 24.4238 15.0955 24.2748 15.4175C23.9409 16.0408 23.7902 16.7121 23.6138 17.3235C23.4083 17.928 23.3329 18.5222 23.2781 19.0702C23.2302 19.6165 23.1154 20.1012 23.1428 20.5447C23.1565 20.9831 23.1685 21.365 23.1771 21.6801C23.1976 22.3 23.2045 22.6562 23.2045 22.6562C23.2045 22.6562 23.2696 22.3052 23.3843 21.6938C23.4408 21.3924 23.511 21.0276 23.5898 20.6064C23.6549 20.1868 23.8707 19.7415 24.0231 19.25C24.184 18.7568 24.369 18.2345 24.679 17.7311C24.9598 17.2173 25.2133 16.6659 25.6294 16.1864C25.8161 15.9415 26.0062 15.6898 26.198 15.4363C26.3983 15.1897 26.6535 14.9808 26.8761 14.7513C27.3094 14.2769 27.8402 13.8916 28.366 13.5132C28.8677 13.1141 29.4808 12.8453 30.01 12.5182C30.6111 12.2767 31.1419 11.9736 31.7345 11.8007C32.3013 11.5952 32.8579 11.4222 33.4025 11.2989C33.9316 11.1431 34.4625 11.0763 34.9283 10.9769C35.2263 10.9341 35.5037 10.8982 35.764 10.8656C35.7332 10.9444 35.7041 11.0198 35.6715 11.0985C35.4009 11.84 35.192 12.6192 35.043 13.4395C34.978 13.8557 34.9214 14.2787 34.8786 14.7085C34.8444 15.1452 34.8375 15.5973 34.8684 16.0734C35.3136 15.9038 35.7195 15.7086 36.1065 15.498C36.4798 15.2805 36.8446 15.0544 37.1922 14.8232C37.8806 14.3489 38.5006 13.8334 39.0657 13.2803C40.1994 12.1808 41.1395 10.9547 41.9324 9.63263L42.0318 9.46823C42.5181 8.64794 42.4616 7.5742 41.8091 6.80529Z" fill="white"/>
<path d="M41.8091 6.80529C40.9477 5.79148 39.999 4.84276 38.8893 4.02247C38.3379 3.60804 37.7471 3.22615 37.1015 2.88365C36.4524 2.54629 35.7828 2.22263 34.9865 2C35.0019 2.82714 35.1475 3.55495 35.3136 4.26735C35.4763 4.95921 35.6938 5.60825 35.9472 6.2316C35.3393 6.4097 34.6029 6.65972 33.7758 6.98167C33.2381 7.21971 32.6507 7.4372 32.0599 7.75744C31.4588 8.04514 30.8474 8.39449 30.2309 8.78494C29.6024 9.13943 29.0167 9.6429 28.4019 10.0779C27.8402 10.6088 27.2255 11.0711 26.7271 11.6756C26.2134 12.2545 25.7099 12.8316 25.3211 13.4892C25.1225 13.8094 24.8964 14.1057 24.7303 14.4328C24.5745 14.765 24.4238 15.0955 24.2748 15.4175C23.9409 16.0408 23.7902 16.7121 23.6138 17.3235C23.4083 17.928 23.3329 18.5222 23.2781 19.0702C23.2302 19.6165 23.1154 20.1012 23.1428 20.5447C23.1565 20.9831 23.1685 21.365 23.1771 21.6801C23.1976 22.3 23.2045 22.6562 23.2045 22.6562C23.2045 22.6562 23.2696 22.3052 23.3843 21.6938C23.4408 21.3924 23.511 21.0276 23.5898 20.6064C23.6549 20.1868 23.8707 19.7415 24.0231 19.25C24.184 18.7568 24.369 18.2345 24.679 17.7311C24.9598 17.2173 25.2133 16.6659 25.6294 16.1864C25.8161 15.9415 26.0062 15.6898 26.198 15.4363C26.3983 15.1897 26.6535 14.9808 26.8761 14.7513C27.3094 14.2769 27.8402 13.8916 28.366 13.5132C28.8677 13.1141 29.4808 12.8453 30.01 12.5182C30.6111 12.2767 31.1419 11.9736 31.7345 11.8007C32.3013 11.5952 32.8579 11.4222 33.4025 11.2989C33.9316 11.1431 34.4625 11.0763 34.9283 10.9769C35.2263 10.9341 35.5037 10.8982 35.764 10.8656C35.7332 10.9444 35.7041 11.0198 35.6715 11.0985C35.4009 11.84 35.192 12.6192 35.043 13.4395C34.978 13.8557 34.9214 14.2787 34.8786 14.7085C34.8444 15.1452 34.8375 15.5973 34.8684 16.0734C35.3136 15.9038 35.7195 15.7086 36.1065 15.498C36.4798 15.2805 36.8446 15.0544 37.1922 14.8232C37.8806 14.3489 38.5006 13.8334 39.0657 13.2803C40.1994 12.1808 41.1395 10.9547 41.9324 9.63263L42.0318 9.46823C42.5181 8.64794 42.4616 7.5742 41.8091 6.80529Z" fill="url(#paint5_linear)"/>
<path d="M52.2621 45.0147V41.189H59.458V38.5791H52.2621V35.4778H60.0968V32.8662H49.2344V47.6348H60.4444V45.0147H52.2621Z" fill="white"/>
<path d="M52.2621 45.0147V41.189H59.458V38.5791H52.2621V35.4778H60.0968V32.8662H49.2344V47.6348H60.4444V45.0147H52.2621Z" fill="url(#paint6_linear)"/>
<path d="M47.8189 50.8251V49.5801H42.8184L42.8201 56.6133H44.2877V53.6558H47.3788V52.4108H44.2877V50.8251H47.8189Z" fill="white"/>
<path d="M47.8189 50.8251V49.5801H42.8184L42.8201 56.6133H44.2877V53.6558H47.3788V52.4108H44.2877V50.8251H47.8189Z" fill="url(#paint7_linear)"/>
<path d="M46.0804 44.2991C46.0804 41.542 45.4246 41.0865 44.2104 40.5522C45.6729 40.0607 46.4949 38.6582 46.4949 37.0364C46.4949 35.7589 45.7722 32.8613 41.842 32.8613H34.3789V47.63H37.4066V41.8451H40.5936C42.8746 41.8451 42.9979 42.6277 42.9979 44.6468C42.9962 46.1658 43.1212 46.9295 43.3285 47.6334H46.7398V47.2412C46.0804 46.9946 46.0804 46.4586 46.0804 44.2991ZM41.0217 39.362H37.4066V35.4112H41.2495C43.063 35.4112 43.4107 36.562 43.4107 37.3447C43.4089 38.8037 42.6263 39.3603 41.0217 39.362Z" fill="white"/>
<path d="M46.0804 44.2991C46.0804 41.542 45.4246 41.0865 44.2104 40.5522C45.6729 40.0607 46.4949 38.6582 46.4949 37.0364C46.4949 35.7589 45.7722 32.8613 41.842 32.8613H34.3789V47.63H37.4066V41.8451H40.5936C42.8746 41.8451 42.9979 42.6277 42.9979 44.6468C42.9962 46.1658 43.1212 46.9295 43.3285 47.6334H46.7398V47.2412C46.0804 46.9946 46.0804 46.4586 46.0804 44.2991ZM41.0217 39.362H37.4066V35.4112H41.2495C43.063 35.4112 43.4107 36.562 43.4107 37.3447C43.4089 38.8037 42.6263 39.3603 41.0217 39.362Z" fill="url(#paint8_linear)"/>
<path d="M50.2442 55.3634V53.5482H53.6692V52.3032H50.2442V50.8253H53.974V49.582H48.8057V56.6084H54.1401V55.3634H50.2442Z" fill="white"/>
<path d="M50.2442 55.3634V53.5482H53.6692V52.3032H50.2442V50.8253H53.974V49.582H48.8057V56.6084H54.1401V55.3634H50.2442Z" fill="url(#paint9_linear)"/>
<path d="M60.9082 55.0224C60.9082 53.7089 60.5914 53.4949 60.016 53.2431C60.7129 53.0051 61.1068 52.3423 61.1068 51.5666C61.1068 50.9638 60.7626 49.5801 58.8926 49.5801H55.3408V56.6065H56.7827V53.8579H58.2983C59.3823 53.8579 59.4457 54.2278 59.4457 55.1885C59.4457 55.9146 59.5022 56.276 59.5998 56.6065H61.2216V56.4232C60.9099 56.3085 60.9099 56.0551 60.9082 55.0224ZM58.5021 52.6797H56.7827V50.796H58.6083C59.4714 50.796 59.6392 51.344 59.6392 51.7156C59.6392 52.4126 59.2676 52.6797 58.5021 52.6797Z" fill="white"/>
<path d="M60.9082 55.0224C60.9082 53.7089 60.5914 53.4949 60.016 53.2431C60.7129 53.0051 61.1068 52.3423 61.1068 51.5666C61.1068 50.9638 60.7626 49.5801 58.8926 49.5801H55.3408V56.6065H56.7827V53.8579H58.2983C59.3823 53.8579 59.4457 54.2278 59.4457 55.1885C59.4457 55.9146 59.5022 56.276 59.5998 56.6065H61.2216V56.4232C60.9099 56.3085 60.9099 56.0551 60.9082 55.0224ZM58.5021 52.6797H56.7827V50.796H58.6083C59.4714 50.796 59.6392 51.344 59.6392 51.7156C59.6392 52.4126 59.2676 52.6797 58.5021 52.6797Z" fill="url(#paint10_linear)"/>
<path d="M39.8533 52.6094L38.1442 52.1881C37.8497 52.1213 37.3958 52.0032 37.3958 51.4552C37.3958 50.8164 38.0671 50.6126 38.6203 50.6126C39.9047 50.6126 40.0177 51.361 40.0639 51.6692H41.4665C41.4562 50.8095 40.8808 49.3984 38.7248 49.3984C36.4454 49.3984 36.0276 50.7821 36.0276 51.5648C36.0276 53.1111 37.1218 53.3646 38.259 53.6283L39.009 53.8064C39.7574 53.9845 40.2831 54.1284 40.2831 54.6764C40.2831 55.423 39.5074 55.5857 38.8172 55.5857C37.5328 55.5857 37.3359 54.8408 37.3256 54.452H35.9248C35.9248 55.322 36.3632 56.7999 38.9285 56.7999C39.5416 56.7999 41.6977 56.6132 41.6977 54.5C41.6959 53.2379 40.8174 52.844 39.8533 52.6094Z" fill="white"/>
<path d="M39.8533 52.6094L38.1442 52.1881C37.8497 52.1213 37.3958 52.0032 37.3958 51.4552C37.3958 50.8164 38.0671 50.6126 38.6203 50.6126C39.9047 50.6126 40.0177 51.361 40.0639 51.6692H41.4665C41.4562 50.8095 40.8808 49.3984 38.7248 49.3984C36.4454 49.3984 36.0276 50.7821 36.0276 51.5648C36.0276 53.1111 37.1218 53.3646 38.259 53.6283L39.009 53.8064C39.7574 53.9845 40.2831 54.1284 40.2831 54.6764C40.2831 55.423 39.5074 55.5857 38.8172 55.5857C37.5328 55.5857 37.3359 54.8408 37.3256 54.452H35.9248C35.9248 55.322 36.3632 56.7999 38.9285 56.7999C39.5416 56.7999 41.6977 56.6132 41.6977 54.5C41.6959 53.2379 40.8174 52.844 39.8533 52.6094Z" fill="url(#paint11_linear)"/>
<path d="M31.4973 32.8594H28.4131V47.628H31.4973V32.8594Z" fill="white"/>
<path d="M31.4973 32.8594H28.4131V47.628H31.4973V32.8594Z" fill="url(#paint12_linear)"/>
<path d="M25.7884 49.583H24.0913L21.5859 56.6111H23.134L23.6221 55.1623H26.2148L26.6669 56.6111H28.263L25.7884 49.583ZM24.016 53.9499L24.9185 51.1705H24.9305L25.8073 53.9499H24.016Z" fill="white"/>
<path d="M25.7884 49.583H24.0913L21.5859 56.6111H23.134L23.6221 55.1623H26.2148L26.6669 56.6111H28.263L25.7884 49.583ZM24.016 53.9499L24.9185 51.1705H24.9305L25.8073 53.9499H24.016Z" fill="url(#paint13_linear)"/>
<path d="M33.4975 49.583V54.4791H33.4804L30.6873 49.583H29.1426V56.6111H30.5109V51.6003H30.5314L33.3981 56.6111H34.8692V49.583H33.4975Z" fill="white"/>
<path d="M33.4975 49.583V54.4791H33.4804L30.6873 49.583H29.1426V56.6111H30.5109V51.6003H30.5314L33.3981 56.6111H34.8692V49.583H33.4975Z" fill="url(#paint14_linear)"/>
</g>
<defs>
<linearGradient id="paint0_linear" x1="34.5" y1="0" x2="34.5" y2="58" gradientUnits="userSpaceOnUse">
<stop stop-color="#FFCD51"/>
<stop offset="1" stop-color="#FF8F30"/>
</linearGradient>
<linearGradient id="paint1_linear" x1="17.3905" y1="32.8623" x2="17.3905" y2="47.6309" gradientUnits="userSpaceOnUse">
<stop stop-color="#FFCD51"/>
<stop offset="1" stop-color="#FF8F30"/>
</linearGradient>
<linearGradient id="paint2_linear" x1="18.197" y1="49.5801" x2="18.197" y2="56.6065" gradientUnits="userSpaceOnUse">
<stop stop-color="#FFCD51"/>
<stop offset="1" stop-color="#FF8F30"/>
</linearGradient>
<linearGradient id="paint3_linear" x1="11.5214" y1="49.583" x2="11.5214" y2="56.6094" gradientUnits="userSpaceOnUse">
<stop stop-color="#FFCD51"/>
<stop offset="1" stop-color="#FF8F30"/>
</linearGradient>
<linearGradient id="paint4_linear" x1="36.111" y1="10.7168" x2="36.111" y2="31.7155" gradientUnits="userSpaceOnUse">
<stop stop-color="#FFCD51"/>
<stop offset="1" stop-color="#FF8F30"/>
</linearGradient>
<linearGradient id="paint5_linear" x1="32.7463" y1="2" x2="32.7463" y2="22.6562" gradientUnits="userSpaceOnUse">
<stop stop-color="#FFCD51"/>
<stop offset="1" stop-color="#FF8F30"/>
</linearGradient>
<linearGradient id="paint6_linear" x1="54.8394" y1="32.8662" x2="54.8394" y2="47.6348" gradientUnits="userSpaceOnUse">
<stop stop-color="#FFCD51"/>
<stop offset="1" stop-color="#FF8F30"/>
</linearGradient>
<linearGradient id="paint7_linear" x1="45.3186" y1="49.5801" x2="45.3186" y2="56.6133" gradientUnits="userSpaceOnUse">
<stop stop-color="#FFCD51"/>
<stop offset="1" stop-color="#FF8F30"/>
</linearGradient>
<linearGradient id="paint8_linear" x1="40.5593" y1="32.8613" x2="40.5593" y2="47.6334" gradientUnits="userSpaceOnUse">
<stop stop-color="#FFCD51"/>
<stop offset="1" stop-color="#FF8F30"/>
</linearGradient>
<linearGradient id="paint9_linear" x1="51.4729" y1="49.582" x2="51.4729" y2="56.6084" gradientUnits="userSpaceOnUse">
<stop stop-color="#FFCD51"/>
<stop offset="1" stop-color="#FF8F30"/>
</linearGradient>
<linearGradient id="paint10_linear" x1="58.2812" y1="49.5801" x2="58.2812" y2="56.6065" gradientUnits="userSpaceOnUse">
<stop stop-color="#FFCD51"/>
<stop offset="1" stop-color="#FF8F30"/>
</linearGradient>
<linearGradient id="paint11_linear" x1="38.8112" y1="49.3984" x2="38.8112" y2="56.7999" gradientUnits="userSpaceOnUse">
<stop stop-color="#FFCD51"/>
<stop offset="1" stop-color="#FF8F30"/>
</linearGradient>
<linearGradient id="paint12_linear" x1="29.9552" y1="32.8594" x2="29.9552" y2="47.628" gradientUnits="userSpaceOnUse">
<stop stop-color="#FFCD51"/>
<stop offset="1" stop-color="#FF8F30"/>
</linearGradient>
<linearGradient id="paint13_linear" x1="24.9245" y1="49.583" x2="24.9245" y2="56.6111" gradientUnits="userSpaceOnUse">
<stop stop-color="#FFCD51"/>
<stop offset="1" stop-color="#FF8F30"/>
</linearGradient>
<linearGradient id="paint14_linear" x1="32.0059" y1="49.583" x2="32.0059" y2="56.6111" gradientUnits="userSpaceOnUse">
<stop stop-color="#FFCD51"/>
<stop offset="1" stop-color="#FF8F30"/>
</linearGradient>
</defs>
</svg>
